<svg width="57" height="54" viewBox="0 0 57 54" fill="none" xmlns="http://www.w3.org/2000/svg">
<g clip-path="url(#clip0_5070_4116)">
<path d="M20.7545 36.6791L0.910522 23.8135L36.2461 0.907471L56.0901 13.7731L20.7545 36.6791Z" stroke="#353A4E" stroke-width="1.5" stroke-linecap="round" stroke-linejoin="round"/>
<path d="M30.9226 4.35962C33.8609 6.26845 38.634 6.26845 41.5723 4.35962" stroke="#353A4E" stroke-width="1.5" stroke-linecap="round" stroke-linejoin="round"/>
<path d="M26.0797 33.2265C23.1414 31.3177 18.3684 31.3177 15.4301 33.2265" stroke="#353A4E" stroke-width="1.5" stroke-linecap="round" stroke-linejoin="round"/>
<path d="M50.766 10.3201C47.8277 12.2289 47.8277 15.3161 50.766 17.2249" stroke="#353A4E" stroke-width="1.5" stroke-linecap="round" stroke-linejoin="round"/>
<path d="M6.18663 27.0003C9.37128 25.5391 9.8202 22.4847 7.19069 20.1689" stroke="#353A4E" stroke-width="1.5" stroke-linecap="round" stroke-linejoin="round"/>
<path d="M29.0181 22.9165C30.4114 23.2197 32.2047 22.9165 33.5359 22.0483C35.2741 20.925 35.5569 19.278 34.1636 18.3753C32.2737 17.1487 30.3907 17.8309 28.5008 18.7819C26.0591 20.0154 24.2313 20.0912 22.838 19.1885C21.4516 18.2857 21.7275 16.6456 23.4656 15.5155C24.7555 14.6748 26.4936 14.3647 27.8662 14.6266" stroke="#353A4E" stroke-width="1.5" stroke-linecap="round" stroke-linejoin="round"/>
<path d="M22.0038 14.5791L34.9986 23.0069" stroke="#353A4E" stroke-width="1.5" stroke-linecap="round" stroke-linejoin="round"/>
<path d="M56.0901 17.8733L20.7545 40.7793L0.910522 27.9136" stroke="#353A4E" stroke-width="1.5" stroke-linecap="round" stroke-linejoin="round"/>
<path d="M56.0901 21.9802L20.7545 44.8862L0.910522 32.0205" stroke="#353A4E" stroke-width="1.5" stroke-linecap="round" stroke-linejoin="round"/>
<path d="M56.0901 26.0806L20.7545 48.9865L0.910522 36.1209" stroke="#353A4E" stroke-width="1.5" stroke-linecap="round" stroke-linejoin="round"/>
<path d="M56.0901 30.1875L20.7545 53.0935L0.910522 40.2278" stroke="#353A4E" stroke-width="1.5" stroke-linecap="round" stroke-linejoin="round"/>
</g>
<defs>
<clipPath id="clip0_5070_4116">
<rect width="56.9039" height="53.909" fill="white" transform="translate(0.0480957 0.0454102)"/>
</clipPath>
</defs>
</svg>
