<svg width="1440" height="594" viewBox="0 0 1440 594" fill="none" xmlns="http://www.w3.org/2000/svg">
<path d="M18.3599 296.037L-164.035 591.626C-164.946 593.101 -166.556 594 -168.29 594L-342.039 593.999C-345.954 593.999 -348.35 589.705 -346.295 586.374L-167.14 296.036C-166.137 294.409 -166.148 292.353 -167.169 290.738L-346.149 7.67207C-348.254 4.34281 -345.862 -5.86015e-05 -341.923 -3.56717e-05L-168.254 0.00097531C-166.54 0.000985292 -164.944 0.879616 -164.028 2.32887L18.3309 290.739C19.3522 292.354 19.3635 294.41 18.3599 296.037Z" fill="url(#paint0_linear_4440_1103)" fill-opacity="0.75"/>
<path d="M203.36 296.037L20.9651 591.626C20.0545 593.101 18.4441 594 16.71 594L-157.039 593.999C-160.954 593.999 -163.35 589.705 -161.295 586.374L17.8599 296.036C18.8635 294.409 18.8522 292.353 17.8309 290.738L-161.149 7.67207C-163.254 4.34281 -160.862 -5.86015e-05 -156.923 -3.56717e-05L16.7458 0.00097531C18.4605 0.000985292 20.0556 0.879616 20.9719 2.32887L203.331 290.739C204.352 292.354 204.363 294.41 203.36 296.037Z" fill="white" fill-opacity="0.75"/>
<path d="M389.352 296.042L206.466 591.631C205.555 593.104 203.946 594 202.214 594L27.9732 593.999C24.0562 593.999 21.6603 589.699 23.7213 586.368L203.352 296.041C204.36 294.412 204.349 292.35 203.323 290.733L23.8674 7.67721C21.7568 4.34821 24.1486 -5.86219e-05 28.0902 -3.57378e-05L202.25 0.000975376C203.962 0.000985319 205.556 0.877417 206.473 2.32373L389.323 290.734C390.349 292.351 390.36 294.413 389.352 296.042Z" fill="white" fill-opacity="0.75"/>
<path d="M575.352 296.042L392.466 591.631C391.555 593.104 389.946 594 388.214 594L213.973 593.999C210.056 593.999 207.66 589.699 209.721 586.368L389.352 296.041C390.36 294.412 390.349 292.35 389.323 290.733L209.867 7.67721C207.757 4.34821 210.149 -5.86219e-05 214.09 -3.57378e-05L388.25 0.000975376C389.962 0.000985319 391.556 0.877417 392.473 2.32373L575.323 290.734C576.349 292.351 576.36 294.413 575.352 296.042Z" fill="white" fill-opacity="0.75"/>
<path d="M761.352 296.042L578.466 591.631C577.555 593.104 575.946 594 574.214 594L399.973 593.999C396.056 593.999 393.66 589.699 395.721 586.368L575.352 296.041C576.36 294.412 576.349 292.35 575.323 290.733L395.867 7.67721C393.757 4.34821 396.149 -5.86219e-05 400.09 -3.57378e-05L574.25 0.000975376C575.962 0.000985319 577.556 0.877417 578.473 2.32373L761.323 290.734C762.349 292.351 762.36 294.413 761.352 296.042Z" fill="url(#paint1_linear_4440_1103)" fill-opacity="0.75"/>
<path d="M947.352 296.042L764.466 591.631C763.555 593.104 761.946 594 760.214 594L585.973 593.999C582.056 593.999 579.66 589.699 581.721 586.368L761.352 296.041C762.36 294.412 762.349 292.35 761.323 290.733L581.867 7.67721C579.757 4.34821 582.149 -5.86219e-05 586.09 -3.57378e-05L760.25 0.000975376C761.962 0.000985319 763.556 0.877417 764.473 2.32373L947.323 290.734C948.349 292.351 948.36 294.413 947.352 296.042Z" fill="url(#paint2_linear_4440_1103)" fill-opacity="0.75"/>
<path d="M1133.35 296.042L950.466 591.631C949.555 593.104 947.946 594 946.214 594L771.973 593.999C768.056 593.999 765.66 589.699 767.721 586.368L947.352 296.041C948.36 294.412 948.349 292.35 947.323 290.733L767.867 7.6773C765.757 4.3483 768.149 2.98909e-05 772.09 5.2775e-05L946.25 0.00106389C947.962 0.00107383 949.556 0.877505 950.473 2.32382L1133.32 290.734C1134.35 292.351 1134.36 294.413 1133.35 296.042Z" fill="white" fill-opacity="0.25"/>
<path d="M1319.35 296.042L1136.47 591.631C1135.55 593.104 1133.95 594 1132.21 594L957.973 593.999C954.056 593.999 951.66 589.699 953.721 586.368L1133.35 296.041C1134.36 294.412 1134.35 292.35 1133.32 290.733L953.867 7.6773C951.757 4.3483 954.149 2.98909e-05 958.09 5.2775e-05L1132.25 0.00106389C1133.96 0.00107383 1135.56 0.877505 1136.47 2.32382L1319.32 290.734C1320.35 292.351 1320.36 294.413 1319.35 296.042Z" fill="white" fill-opacity="0.25"/>
<path d="M1505.35 296.042L1322.47 591.631C1321.55 593.104 1319.95 594 1318.21 594L1143.97 593.999C1140.06 593.999 1137.66 589.699 1139.72 586.368L1319.35 296.041C1320.36 294.412 1320.35 292.35 1319.32 290.733L1139.87 7.67721C1137.76 4.34821 1140.15 -5.86219e-05 1144.09 -3.57378e-05L1318.25 0.000975376C1319.96 0.000985319 1321.56 0.877417 1322.47 2.32373L1505.32 290.734C1506.35 292.351 1506.36 294.413 1505.35 296.042Z" fill="white" fill-opacity="0.25"/>
<path d="M1691.35 296.042L1508.47 591.631C1507.55 593.104 1505.95 594 1504.21 594L1329.97 593.999C1326.06 593.999 1323.66 589.699 1325.72 586.368L1505.35 296.041C1506.36 294.412 1506.35 292.35 1505.32 290.733L1325.87 7.67721C1323.76 4.34821 1326.15 -5.86219e-05 1330.09 -3.57378e-05L1504.25 0.000975376C1505.96 0.000985319 1507.56 0.877417 1508.47 2.32373L1691.32 290.734C1692.35 292.351 1692.36 294.413 1691.35 296.042Z" fill="white" fill-opacity="0.25"/>
<defs>
<linearGradient id="paint0_linear_4440_1103" x1="20" y1="297" x2="-351" y2="297" gradientUnits="userSpaceOnUse">
<stop offset="0.28" stop-color="white"/>
<stop offset="1" stop-color="white" stop-opacity="0.25"/>
</linearGradient>
<linearGradient id="paint1_linear_4440_1103" x1="763" y1="297" x2="391" y2="297" gradientUnits="userSpaceOnUse">
<stop offset="0.09" stop-color="white" stop-opacity="0.25"/>
<stop offset="0.65" stop-color="white"/>
</linearGradient>
<linearGradient id="paint2_linear_4440_1103" x1="949" y1="297" x2="577" y2="297" gradientUnits="userSpaceOnUse">
<stop stop-color="white" stop-opacity="0"/>
<stop offset="0.814936" stop-color="white" stop-opacity="0.75"/>
</linearGradient>
</defs>
</svg>
