<svg width="59" height="60" viewBox="0 0 59 60" fill="none" xmlns="http://www.w3.org/2000/svg">
<path d="M34.4429 8.81247C32.8124 8.4415 31.1492 8.25342 29.4992 8.25342C27.8492 8.25342 26.1858 8.4415 24.5554 8.81247C24.1367 8.90772 23.84 9.27754 23.84 9.70396V13.1385C22.3532 13.6253 20.9414 14.3013 19.6286 15.155L16.9223 13.012C16.5866 12.7459 16.1104 12.7459 15.7743 13.0115C14.4656 14.0462 13.2805 15.2202 12.2519 16.501C11.2231 17.7818 10.3341 19.1904 9.60951 20.6877C9.42357 21.072 9.52971 21.533 9.86548 21.7989L12.5676 23.9385C12.0237 25.3967 11.6757 26.9147 11.5292 28.4676L8.15702 29.2319C7.73838 29.3268 7.4413 29.6964 7.44093 30.1228C7.43952 31.7843 7.62505 33.4363 7.99217 35.0332C8.35915 36.6303 8.91399 38.1987 9.64103 39.6949C9.82774 40.0789 10.2569 40.2836 10.6755 40.189L14.0474 39.4248C14.8575 40.7551 15.8352 41.9714 16.9645 43.0532L15.4627 46.1498C15.2764 46.534 15.3822 46.9952 15.7178 47.2613C17.0251 48.2982 18.4415 49.1843 19.9277 49.8948C21.4142 50.6057 22.995 51.1529 24.6261 51.5211C25.0446 51.6159 25.4736 51.4104 25.6601 51.0262L27.1617 47.9301C28.7283 48.1335 30.2703 48.1335 31.8367 47.9301L33.3383 51.0262C33.4943 51.3478 33.8202 51.5441 34.1679 51.544C34.2356 51.544 34.3041 51.5366 34.3723 51.5211C36.0037 51.1529 37.5844 50.6057 39.0707 49.8949C40.5569 49.1843 41.9732 48.2982 43.2806 47.2613C43.6162 46.9952 43.7219 46.534 43.5356 46.1498L42.0339 43.0532C43.1631 41.9714 44.1408 40.7551 44.951 39.4248L48.3228 40.189C48.7412 40.2836 49.1706 40.0788 49.3573 39.6949C50.0844 38.1987 50.6392 36.6303 51.0062 35.0333C51.3733 33.4363 51.5588 31.7843 51.5574 30.1228C51.557 29.6964 51.26 29.3268 50.8413 29.2319L47.4691 28.4676C47.3227 26.9148 46.9747 25.3967 46.4309 23.9385L49.1329 21.7988C49.4687 21.533 49.5748 21.072 49.3888 20.6877C48.6643 19.1904 47.7752 17.7819 46.7465 16.5011C45.7179 15.2202 44.5328 14.0462 43.2241 13.0115C42.8881 12.7459 42.4119 12.7461 42.0761 13.012L39.3697 15.155C38.0569 14.3013 36.6451 13.6254 35.1583 13.1385V9.70396C35.1582 9.27756 34.8614 8.90772 34.4429 8.81247ZM38.8785 17.0364C39.2134 17.273 39.6656 17.2604 39.9865 17.0061L42.6403 14.9047C43.6189 15.7363 44.5135 16.6545 45.3062 17.6416C46.0989 18.6286 46.8014 19.6988 47.4001 20.8313L44.7509 22.9292C44.4298 23.1834 44.317 23.618 44.4744 23.9948C45.1745 25.6697 45.5805 27.441 45.6814 29.2593C45.704 29.6666 45.9955 30.0098 46.3961 30.1006L49.7029 30.8502C49.6583 32.1286 49.4931 33.3957 49.2102 34.6262C48.9273 35.8569 48.5225 37.0696 48.0042 38.2406L44.699 37.4915C44.2992 37.4008 43.8868 37.5839 43.6883 37.9403C42.8033 39.5277 41.6619 40.9476 40.2954 42.1606C39.9893 42.4322 39.9013 42.872 40.0794 43.2392L41.5517 46.2751C40.5172 47.0375 39.4166 47.6993 38.2713 48.2469C37.126 48.7946 35.9187 49.2364 34.6736 49.5641L33.2016 46.529C33.0462 46.2088 32.7211 46.0112 32.3722 46.0112C32.3213 46.0112 32.2699 46.0154 32.2183 46.024C31.3085 46.1767 30.3936 46.2541 29.4991 46.2541C28.6048 46.2541 27.6898 46.1767 26.7798 46.024C26.3749 45.9564 25.9745 46.1621 25.7966 46.529L24.3245 49.5641C23.0796 49.2365 21.8723 48.7946 20.7268 48.2469C19.5815 47.6993 18.481 47.0375 17.4465 46.2751L18.9188 43.2392C19.0969 42.872 19.0088 42.4322 18.7028 42.1606C17.3362 40.9476 16.1948 39.5277 15.3098 37.9403C15.1113 37.5839 14.6991 37.4008 14.2991 37.4915L10.994 38.2406C10.4756 37.0696 10.0708 35.8569 9.78791 34.6262C9.50511 33.3957 9.33984 32.1286 9.29526 30.8502L12.6021 30.1006C13.0026 30.0099 13.2942 29.6666 13.3168 29.2593C13.4176 27.441 13.8237 25.6697 14.5237 23.9948C14.6813 23.6181 14.5684 23.1834 14.2473 22.9292L11.5981 20.8313C12.1968 19.6988 12.8993 18.6285 13.692 17.6415C14.4847 16.6545 15.3792 15.7364 16.3578 14.9047L19.0116 17.0061C19.3326 17.2604 19.7848 17.273 20.1196 17.0364C21.613 15.9819 23.2602 15.1933 25.0154 14.6924C25.4101 14.5798 25.682 14.2212 25.682 13.8134V10.4459C28.2114 9.96339 30.7864 9.96339 33.316 10.4459V13.8134C33.316 14.2212 33.5879 14.5798 33.9826 14.6924C35.738 15.1932 37.3852 15.9819 38.8785 17.0364Z" fill="#353A4E"/>
<path d="M18.9086 29.746C18.9086 35.5455 23.6602 40.2638 29.5006 40.2638C35.3411 40.2638 40.0927 35.5455 40.0927 29.746C40.0927 23.9465 35.3411 19.2283 29.5006 19.2283C23.6602 19.2283 18.9086 23.9465 18.9086 29.746ZM38.2506 29.746C38.2506 34.537 34.3254 38.4346 29.5006 38.4346C24.6759 38.4346 20.7507 34.537 20.7507 29.746C20.7507 24.9551 24.6759 21.0574 29.5006 21.0574C34.3254 21.0574 38.2506 24.9551 38.2506 29.746Z" fill="#353A4E"/>
<path d="M25.7659 29.341C25.4049 28.9857 24.8216 28.9881 24.4634 29.347C24.1054 29.7058 24.1081 30.2849 24.4694 30.6404L27.7079 33.8267C27.8874 34.0034 28.1217 34.0916 28.3561 34.0916C28.5919 34.0916 28.8276 34.0022 29.0075 33.8237L34.9943 27.8789C35.3539 27.5217 35.3539 26.9426 34.9943 26.5855C34.6345 26.2283 34.0514 26.2283 33.6916 26.5855L28.3532 31.8865L25.7659 29.341Z" fill="#353A4E"/>
<path d="M38.9375 8.69226C39.0733 9.06426 39.4268 9.29539 39.8034 9.29539C39.9076 9.29539 40.0137 9.27767 40.1173 9.24041C40.5956 9.06823 40.8426 8.54375 40.6693 8.06884L39.6038 5.15028C49.8881 9.22347 56.6714 19.0621 56.6714 30.2039C56.6714 45.0809 44.4825 57.1842 29.5005 57.1842C24.1737 57.1842 19.0166 55.6545 14.5866 52.7604C14.1615 52.4828 13.5905 52.6 13.3109 53.0217C13.0313 53.4437 13.1491 54.0109 13.5741 54.2885C18.3056 57.3796 23.8129 59.0134 29.5005 59.0134C37.2501 59.0134 44.5359 56.0167 50.0158 50.5753C55.4956 45.1339 58.5135 37.8991 58.5135 30.2039C58.5135 23.9748 56.5438 18.0455 52.8172 13.0569C49.6771 8.85319 45.5392 5.63325 40.7484 3.63892L43.1861 2.76142C43.6644 2.58923 43.9115 2.06476 43.7382 1.58985C43.5648 1.11494 43.0362 0.869851 42.5583 1.04171L37.7553 2.77065C37.5257 2.85333 37.3385 3.02323 37.2349 3.24293C37.1315 3.46265 37.1201 3.71414 37.2033 3.94219L38.9375 8.69226Z" fill="#353A4E"/>
<path d="M5.52317 50.325C5.01446 50.325 4.60212 50.7345 4.60212 51.2396C4.60212 51.7448 5.01446 52.1542 5.52317 52.1542H11.0495C11.5582 52.1542 11.9705 51.7448 11.9705 51.2396V46.2094C11.9705 45.7043 11.5582 45.2948 11.0495 45.2948C10.5408 45.2948 10.1284 45.7043 10.1284 46.2094V49.1174C5.14986 44.0881 2.32879 37.3067 2.32879 30.2041C2.32879 15.327 14.5177 3.22371 29.4997 3.22371C31.0006 3.22371 32.506 3.34613 33.9743 3.58761C34.4743 3.67066 34.9502 3.33318 35.0335 2.83475C35.1166 2.33643 34.7772 1.86554 34.2753 1.78306C32.7079 1.52525 31.1012 1.39453 29.4997 1.39453C21.7501 1.39453 14.4642 4.39125 8.98443 9.83266C3.50451 15.2741 0.486694 22.5087 0.486694 30.2041C0.486694 37.7531 3.47063 44.9626 8.74057 50.325H5.52317Z" fill="#353A4E"/>
</svg>
