<svg width="50" height="50" viewBox="0 0 50 50" fill="none" xmlns="http://www.w3.org/2000/svg">
<path d="M38.994 31.375L27.2086 43.1604C26.6227 43.7456 25.8284 44.0743 25.0003 44.0743C24.1721 44.0743 23.3779 43.7456 22.7919 43.1604L11.0044 31.3771C10.4182 30.7908 10.0889 29.9957 10.0889 29.1667C10.0889 28.3376 10.4182 27.5425 11.0044 26.9562C11.5907 26.37 12.3858 26.0407 13.2149 26.0407C14.0439 26.0407 14.839 26.37 15.4253 26.9562L21.8753 33.4062V9.375C21.8753 8.5462 22.2045 7.75134 22.7906 7.16529C23.3766 6.57924 24.1715 6.25 25.0003 6.25C25.8291 6.25 26.6239 6.57924 27.21 7.16529C27.796 7.75134 28.1253 8.5462 28.1253 9.375V33.4062L34.5753 26.9583C35.1615 26.3724 35.9565 26.0433 36.7854 26.0435C37.6143 26.0437 38.4091 26.3731 38.9951 26.9594C39.581 27.5456 39.9101 28.3406 39.9099 29.1695C39.9097 29.9984 39.5803 30.7932 38.994 31.3792V31.375Z" fill="#008CFF"/>
</svg>
