<svg width="54" height="52" viewBox="0 0 54 52" fill="none" xmlns="http://www.w3.org/2000/svg">
<g clip-path="url(#clip0_5031_2157)">
<path d="M22.236 47.5518C21.9345 47.5518 21.64 47.3961 21.4775 47.1173C21.1112 46.4883 20.4646 46.1123 19.7485 46.1123C19.0324 46.1123 18.3858 46.4883 18.0196 47.1173C17.7781 47.5343 17.2422 47.6748 16.8241 47.4347L6.63516 41.5842C6.43376 41.4682 6.28654 41.2785 6.22765 41.0547C6.16758 40.8322 6.19938 40.5944 6.31598 40.3941C6.50089 40.0755 6.59511 39.7429 6.59511 39.4021C6.59511 38.3011 5.69411 37.4062 4.587 37.4062C4.10411 37.4062 3.71191 37.0162 3.71191 36.5359V24.8594C3.71191 24.3792 4.10411 23.9891 4.587 23.9891C5.69411 23.9891 6.59511 23.0931 6.59511 21.9921C6.59511 21.6524 6.50089 21.3186 6.31598 21C6.07336 20.5842 6.21705 20.0513 6.63516 19.8112C7.05445 19.5711 7.58798 19.7128 7.8306 20.1286C8.17216 20.7154 8.34411 21.342 8.34411 21.9921C8.34411 23.7537 7.11334 25.2342 5.46091 25.6266V35.7676C7.11216 36.1611 8.34411 37.6416 8.34411 39.4021C8.34411 39.764 8.29111 40.1189 8.18394 40.4632L17.0302 45.5419C17.7322 44.804 18.7133 44.3695 19.7474 44.3695C20.7814 44.3695 21.7625 44.804 22.4645 45.5419L31.3108 40.4632C31.2048 40.1189 31.1506 39.764 31.1506 39.4021C31.1506 37.6404 32.3814 36.1611 34.0326 35.7676V25.6266C32.3814 25.233 31.1506 23.7525 31.1506 21.9921C31.1506 21.6302 31.2048 21.2753 31.3108 20.9309L22.4645 15.8511C21.7625 16.589 20.7814 17.0235 19.7474 17.0235C18.7133 17.0235 17.7322 16.589 17.0302 15.8511L10.5701 19.5605C10.152 19.8006 9.61611 19.6589 9.37467 19.2419C9.13323 18.8261 9.27691 18.2932 9.69502 18.0531L16.8229 13.9606C17.2399 13.7205 17.7758 13.8622 18.0184 14.278C18.3847 14.907 19.0313 15.283 19.7474 15.283C20.4634 15.283 21.11 14.907 21.4763 14.278C21.719 13.8622 22.2537 13.7193 22.6718 13.9606L32.8607 19.8112C33.0621 19.9271 33.2094 20.1169 33.2682 20.3406C33.3283 20.5631 33.2965 20.8009 33.1799 21.0012C32.995 21.3198 32.9008 21.6524 32.9008 21.9933C32.9008 23.0943 33.8018 23.9903 34.9077 23.9903C35.3906 23.9903 35.7828 24.3804 35.7828 24.8606V36.5371C35.7828 37.0173 35.3906 37.4074 34.9077 37.4074C33.8006 37.4074 32.9008 38.3034 32.9008 39.4032C32.9008 39.7429 32.995 40.0767 33.1799 40.3953C33.2965 40.5956 33.3283 40.8334 33.2682 41.0559C33.2082 41.2796 33.061 41.4694 32.8607 41.5853L22.6718 47.4359C22.534 47.5155 22.3832 47.553 22.2348 47.553L22.236 47.5518Z" fill="#353A4E"/>
<path d="M19.7493 17.0255C17.6775 17.0255 15.991 15.3494 15.991 13.2891C15.991 11.2288 17.6764 9.55151 19.7493 9.55151C21.8221 9.55151 23.5075 11.2276 23.5075 13.2891C23.5075 15.3505 21.8221 17.0255 19.7493 17.0255ZM19.7493 11.292C18.6421 11.292 17.7423 12.1881 17.7423 13.2891C17.7423 14.3901 18.6433 15.2849 19.7493 15.2849C20.8552 15.2849 21.7574 14.3889 21.7574 13.2891C21.7574 12.1892 20.8564 11.292 19.7493 11.292Z" fill="#353A4E"/>
<path d="M19.7493 51.8462C17.6775 51.8462 15.991 50.1701 15.991 48.1087C15.991 46.0472 17.6764 44.3711 19.7493 44.3711C21.8221 44.3711 23.5075 46.0472 23.5075 48.1087C23.5075 50.1701 21.8221 51.8462 19.7493 51.8462ZM19.7493 46.1128C18.6421 46.1128 17.7423 47.0088 17.7423 48.1098C17.7423 49.2108 18.6433 50.1057 19.7493 50.1057C20.8552 50.1057 21.7574 49.2108 21.7574 48.1098C21.7574 47.0088 20.8564 46.1128 19.7493 46.1128Z" fill="#353A4E"/>
<path d="M34.9109 43.1407C32.8392 43.1407 31.1538 41.4646 31.1538 39.4031C31.1538 37.3417 32.8392 35.6667 34.9109 35.6667C36.9826 35.6667 38.6692 37.3429 38.6692 39.4031C38.6692 41.4634 36.9838 43.1407 34.9109 43.1407ZM34.9109 37.4073C33.8038 37.4073 32.904 38.3033 32.904 39.4031C32.904 40.503 33.805 41.4002 34.9109 41.4002C36.0169 41.4002 36.919 40.5041 36.919 39.4031C36.919 38.3021 36.018 37.4073 34.9109 37.4073Z" fill="#353A4E"/>
<path d="M34.9109 25.7307C32.8392 25.7307 31.1538 24.0546 31.1538 21.9932C31.1538 19.9317 32.8392 18.2556 34.9109 18.2556C36.9826 18.2556 38.6692 19.9317 38.6692 21.9932C38.6692 24.0546 36.9838 25.7307 34.9109 25.7307ZM34.9109 19.9961C33.8038 19.9961 32.904 20.8922 32.904 21.992C32.904 23.0918 33.805 23.989 34.9109 23.989C36.0169 23.989 36.919 23.093 36.919 21.992C36.919 20.891 36.018 19.9961 34.9109 19.9961Z" fill="#353A4E"/>
<path d="M4.5867 43.1407C2.51499 43.1407 0.82959 41.4646 0.82959 39.4031C0.82959 37.3417 2.51499 35.6667 4.5867 35.6667C6.65841 35.6667 8.34499 37.3429 8.34499 39.4031C8.34499 41.4634 6.65959 43.1407 4.5867 43.1407ZM4.5867 37.4073C3.47959 37.4073 2.57977 38.3033 2.57977 39.4031C2.57977 40.503 3.48077 41.4002 4.5867 41.4002C5.69263 41.4002 6.59481 40.5041 6.59481 39.4031C6.59481 38.3021 5.69381 37.4073 4.5867 37.4073Z" fill="#353A4E"/>
<path d="M4.5867 25.7307C2.51499 25.7307 0.82959 24.0546 0.82959 21.9932C0.82959 19.9317 2.51499 18.2556 4.5867 18.2556C6.65841 18.2556 8.34499 19.9317 8.34499 21.9932C8.34499 24.0546 6.65959 25.7307 4.5867 25.7307ZM4.5867 19.9961C3.47959 19.9961 2.57977 20.8922 2.57977 21.992C2.57977 23.0918 3.48077 23.989 4.5867 23.989C5.69263 23.989 6.59481 23.093 6.59481 21.992C6.59481 20.891 5.69381 19.9961 4.5867 19.9961Z" fill="#353A4E"/>
<path d="M37.3988 38.8469C37.0962 38.8469 36.8029 38.6912 36.6404 38.4124C36.2741 37.7834 35.6275 37.4074 34.9114 37.4074C34.1953 37.4074 33.5487 37.7834 33.1824 38.4124C32.941 38.8294 32.4051 38.9699 31.987 38.7298L21.798 32.8792C21.5966 32.7633 21.4494 32.5735 21.3905 32.3498C21.3304 32.1273 21.3622 31.8895 21.4788 31.6892C21.6637 31.3706 21.758 31.038 21.758 30.6971C21.758 29.5961 20.857 28.7001 19.7498 28.7001C19.267 28.7001 18.8748 28.3101 18.8748 27.8298V16.1533C18.8748 15.6731 19.267 15.2831 19.7498 15.2831C20.857 15.2831 21.758 14.387 21.758 13.2872C21.758 12.9475 21.6637 12.6137 21.4788 12.2951C21.3622 12.0948 21.3304 11.8571 21.3905 11.6345C21.4506 11.4108 21.5978 11.221 21.798 11.1051L31.987 5.25453C32.4039 5.01442 32.9398 5.15615 33.1824 5.57195C33.5487 6.20093 34.1953 6.57691 34.9114 6.57691C35.6275 6.57691 36.2741 6.20093 36.6404 5.57195C36.883 5.15615 37.4189 5.01559 37.8358 5.25453C38.2539 5.49582 38.3976 6.02758 38.155 6.44339C37.4825 7.59944 36.2387 8.31744 34.9114 8.31744C33.8785 8.31744 32.8962 7.88289 32.1942 7.14498L23.348 12.2237C23.454 12.568 23.5081 12.9229 23.5081 13.2848C23.5081 15.0465 22.2774 16.5258 20.6249 16.9193V27.0603C22.2762 27.4539 23.5081 28.9344 23.5081 30.6948C23.5081 31.0567 23.4551 31.4116 23.348 31.756L32.1942 36.8347C32.8962 36.0968 33.8773 35.6622 34.9114 35.6622C36.2399 35.6622 37.4825 36.3802 38.155 37.5363C38.3976 37.9521 38.2539 38.485 37.8358 38.7251C37.698 38.8048 37.5472 38.8422 37.3977 38.8422L37.3988 38.8469Z" fill="#353A4E"/>
<path d="M41.591 36.4391C41.2883 36.4391 40.9951 36.2833 40.8325 36.0045C40.5911 35.5875 40.7348 35.0558 41.1529 34.8157L46.4752 31.7598C46.3692 31.4154 46.3151 31.0605 46.3151 30.6986C46.3151 28.937 47.5459 27.4565 49.1983 27.0641V16.9232C47.547 16.5296 46.3151 15.0491 46.3151 13.2887C46.3151 12.9267 46.3692 12.5718 46.4752 12.2275L42.1811 9.76193C41.763 9.52182 41.6193 8.98889 41.8607 8.57308C42.1033 8.1561 42.638 8.01438 43.0562 8.25449L48.024 11.1077C48.2254 11.2237 48.3727 11.4134 48.4315 11.6372C48.4916 11.8597 48.4598 12.0975 48.3432 12.2978C48.1583 12.6163 48.0641 12.949 48.0641 13.2898C48.0641 14.3908 48.9651 15.2857 50.0722 15.2857C50.5551 15.2857 50.9473 15.6757 50.9473 16.156V27.8325C50.9473 28.3127 50.5551 28.7027 50.0722 28.7027C48.9651 28.7027 48.0641 29.5988 48.0641 30.6998C48.0641 31.0395 48.1583 31.3733 48.3432 31.6919C48.4598 31.8922 48.4916 32.1299 48.4315 32.3525C48.3715 32.5762 48.2243 32.7659 48.024 32.8819L42.028 36.3243C41.8902 36.4039 41.7394 36.4414 41.591 36.4414V36.4391Z" fill="#353A4E"/>
<path d="M34.9109 8.3199C32.8392 8.3199 31.1538 6.6438 31.1538 4.58234C31.1538 2.52088 32.8392 0.845947 34.9109 0.845947C36.9826 0.845947 38.6692 2.52205 38.6692 4.58234C38.6692 6.64263 36.9838 8.3199 34.9109 8.3199ZM34.9109 2.58647C33.8038 2.58647 32.904 3.48251 32.904 4.58234C32.904 5.68218 33.805 6.57938 34.9109 6.57938C36.0169 6.57938 36.919 5.68335 36.919 4.58234C36.919 3.48133 36.018 2.58647 34.9109 2.58647Z" fill="#353A4E"/>
<path d="M50.0735 34.4356C48.0006 34.4356 46.3152 32.7595 46.3152 30.698C46.3152 28.6366 48.0006 26.9604 50.0735 26.9604C52.1464 26.9604 53.8318 28.6366 53.8318 30.698C53.8318 32.7595 52.1464 34.4356 50.0735 34.4356ZM50.0735 28.701C48.9664 28.701 48.0654 29.597 48.0654 30.698C48.0654 31.799 48.9664 32.6939 50.0735 32.6939C51.1806 32.6939 52.0804 31.7978 52.0804 30.698C52.0804 29.5982 51.1794 28.701 50.0735 28.701Z" fill="#353A4E"/>
<path d="M50.0735 17.0255C48.0006 17.0255 46.3152 15.3494 46.3152 13.2891C46.3152 11.2288 48.0006 9.55151 50.0735 9.55151C52.1464 9.55151 53.8318 11.2276 53.8318 13.2891C53.8318 15.3505 52.1464 17.0255 50.0735 17.0255ZM50.0735 11.292C48.9664 11.292 48.0654 12.1881 48.0654 13.2891C48.0654 14.3901 48.9664 15.2849 50.0735 15.2849C51.1806 15.2849 52.0804 14.3889 52.0804 13.2891C52.0804 12.1892 51.1794 11.292 50.0735 11.292Z" fill="#353A4E"/>
<path d="M19.7493 34.4356C17.6775 34.4356 15.991 32.7595 15.991 30.698C15.991 28.6366 17.6764 26.9604 19.7493 26.9604C21.8221 26.9604 23.5075 28.6366 23.5075 30.698C23.5075 32.7595 21.8221 34.4356 19.7493 34.4356ZM19.7493 28.701C18.6421 28.701 17.7423 29.597 17.7423 30.698C17.7423 31.799 18.6433 32.6939 19.7493 32.6939C20.8552 32.6939 21.7574 31.7978 21.7574 30.698C21.7574 29.5982 20.8564 28.701 19.7493 28.701Z" fill="#353A4E"/>
</g>
<defs>
<clipPath id="clip0_5031_2157">
<rect width="53" height="51" fill="white" transform="translate(0.830078 0.846191)"/>
</clipPath>
</defs>
</svg>
