<svg width="22" height="18" viewBox="0 0 22 18" fill="none" xmlns="http://www.w3.org/2000/svg">
<path d="M7.54907 16.9916L0.819225 10.2618C0.485052 9.92721 0.29735 9.47366 0.29735 9.00077C0.29735 8.52788 0.485052 8.07433 0.819225 7.73974L7.54788 1.00871C7.88264 0.673944 8.33668 0.485878 8.8101 0.485878C9.28352 0.485878 9.73756 0.673944 10.0723 1.00871C10.4071 1.34347 10.5951 1.7975 10.5951 2.27092C10.5951 2.74435 10.4071 3.19838 10.0723 3.53314L6.38916 7.2163L20.1118 7.2163C20.585 7.2163 21.0389 7.4043 21.3736 7.73896C21.7082 8.07361 21.8962 8.5275 21.8962 9.00077C21.8962 9.47404 21.7082 9.92793 21.3736 10.2626C21.0389 10.5972 20.585 10.7852 20.1118 10.7852L6.38916 10.7852L10.0711 14.4684C10.4057 14.8032 10.5936 15.2571 10.5935 15.7304C10.5934 16.2038 10.4053 16.6576 10.0705 16.9922C9.73577 17.3268 9.2818 17.5148 8.80849 17.5146C8.33518 17.5145 7.88129 17.3264 7.54669 16.9916H7.54907Z" fill="white"/>
</svg>
