<svg width="25" height="30" viewBox="0 0 25 30" fill="none" xmlns="http://www.w3.org/2000/svg">
<path d="M4.62549 4.5V23.2925C4.62549 25.6395 6.8811 27.5427 9.66446 27.5427H16.7229C19.5055 27.5427 21.7618 25.6402 21.7618 23.2925V17.4432C21.7618 15.0962 19.5062 13.193 16.7229 13.193H12.9128" stroke="#008CFF" stroke-width="4.84682" stroke-miterlimit="10"/>
<path d="M8.90585 0.707275H0.346904C0.155314 0.707275 0 0.857434 0 1.04266V2.78455C0 2.96978 0.155314 3.11994 0.346904 3.11994H8.90585C9.09743 3.11994 9.25275 2.96978 9.25275 2.78455V1.04266C9.25275 0.857434 9.09743 0.707275 8.90585 0.707275Z" fill="#008CFF"/>
<path d="M11.3823 8.82031H9.52521C9.32791 8.82031 9.16797 8.97494 9.16797 9.16569V17.6924C9.16797 17.8832 9.32791 18.0378 9.52521 18.0378H11.3823C11.5795 18.0378 11.7395 17.8832 11.7395 17.6924V9.16569C11.7395 8.97494 11.5795 8.82031 11.3823 8.82031Z" fill="#008CFF"/>
</svg>
