<svg width="572" height="90" viewBox="0 0 572 90" fill="none" xmlns="http://www.w3.org/2000/svg">
<path d="M26.0563 70.248C11.0803 70.248 0.520328 59.688 0.520328 45.288C0.520328 30.888 11.0803 20.328 26.0563 20.328C41.0323 20.328 51.5923 30.888 51.5923 45.288C51.5923 59.688 41.0323 70.248 26.0563 70.248ZM26.0563 59.592C34.4083 59.592 39.9763 53.64 39.9763 45.288C39.9763 36.936 34.4083 30.984 26.0563 30.984C17.7043 30.984 12.0403 36.936 12.0403 45.288C12.0403 53.64 17.7043 59.592 26.0563 59.592ZM82.4893 70.248C68.4733 70.248 59.0653 62.184 59.0653 46.248V21.576H70.4893V46.248C70.4893 55.272 75.2893 59.592 82.4893 59.592C89.6893 59.592 94.4893 55.272 94.4893 46.248V21.576H105.913V46.248C105.913 62.088 96.5053 70.248 82.4893 70.248ZM115.315 69V41.448C115.315 27.144 123.763 20.328 136.147 20.328C148.531 20.328 156.883 27.144 156.883 41.64V41.928H145.555V41.448C145.555 33.768 141.715 30.984 136.147 30.984C130.579 30.984 126.739 33.768 126.739 41.448V69H115.315Z" fill="#353A4E"/>
<path d="M188.534 89.256V45.672C188.534 30.312 198.902 20.328 213.782 20.328C228.854 20.328 239.414 30.696 239.414 45.768C239.414 61.992 227.318 70.248 215.798 70.248C208.982 70.248 203.318 67.368 199.958 62.088V89.256H188.534ZM213.878 59.592C222.23 59.592 227.894 53.64 227.894 45.288C227.894 36.936 222.23 30.984 213.878 30.984C205.526 30.984 199.958 36.936 199.958 45.288C199.958 53.64 205.526 59.592 213.878 59.592ZM246.94 69V41.448C246.94 27.144 255.388 20.328 267.772 20.328C280.156 20.328 288.508 27.144 288.508 41.64V41.928H277.18V41.448C277.18 33.768 273.34 30.984 267.772 30.984C262.204 30.984 258.364 33.768 258.364 41.448V69H246.94ZM318.275 70.248C303.299 70.248 292.739 59.688 292.739 45.288C292.739 30.888 303.299 20.328 318.275 20.328C333.251 20.328 343.811 30.888 343.811 45.288C343.811 59.688 333.251 70.248 318.275 70.248ZM318.275 59.592C326.627 59.592 332.195 53.64 332.195 45.288C332.195 36.936 326.627 30.984 318.275 30.984C309.923 30.984 304.259 36.936 304.259 45.288C304.259 53.64 309.923 59.592 318.275 59.592ZM358.676 15.432C354.26 15.432 351.092 12.264 351.092 7.848C351.092 3.432 354.26 0.167999 358.676 0.167999C363.092 0.167999 366.26 3.432 366.26 7.848C366.26 12.264 363.092 15.432 358.676 15.432ZM344.852 89.928V80.04H346.292C351.092 80.04 352.916 77.832 352.916 72.36V21.576H364.34V71.592C364.34 83.496 359.444 89.928 347.348 89.928H344.852ZM398.994 70.248C384.018 70.248 373.458 59.688 373.458 45.288C373.458 30.888 384.018 20.328 398.994 20.328C413.97 20.328 424.338 30.888 424.338 45.288V49.32H385.458C386.994 56.232 392.274 59.88 398.994 59.88C404.082 59.88 407.826 58.44 410.226 55.368H422.418C418.866 64.392 410.226 70.248 398.994 70.248ZM385.746 40.2H412.242C410.418 33.864 405.234 30.696 398.994 30.696C392.562 30.696 387.57 33.96 385.746 40.2ZM455.431 70.248C440.455 70.248 429.895 59.688 429.895 45.288C429.895 30.888 440.455 20.328 455.431 20.328C468.295 20.328 477.703 28.104 480.007 39.336H468.487C466.471 34.248 461.671 30.984 455.431 30.984C447.079 30.984 441.415 36.936 441.415 45.288C441.415 53.64 447.079 59.592 455.431 59.592C461.671 59.592 466.471 56.328 468.487 51.24H480.007C477.703 62.472 468.295 70.248 455.431 70.248ZM506.895 70.248C495.375 70.248 487.503 63.912 487.503 50.76V4.776H498.927V21.576H523.407V31.944H498.927V50.76C498.927 57.096 502.191 59.592 506.895 59.592C511.599 59.592 514.863 57.192 514.863 50.76V49.512H526.287V50.76C526.287 63.912 518.415 70.248 506.895 70.248ZM551.772 70.248C539.676 70.248 532.092 63.816 531.804 54.984H543.324C543.42 58.152 546.204 60.264 551.772 60.264C557.628 60.264 560.124 57.864 560.124 54.984C560.124 51.336 555.9 50.856 550.812 50.184C543.516 49.224 532.764 47.976 532.764 36.36C532.764 26.664 540.156 20.328 551.58 20.328C563.196 20.328 570.3 26.856 570.588 35.208H559.26C558.972 32.328 556.284 30.312 551.772 30.312C546.78 30.312 544.284 32.712 544.284 35.496C544.284 39.144 548.604 39.72 553.692 40.392C560.028 41.256 571.644 42.504 571.644 54.312C571.644 63.912 563.868 70.248 551.772 70.248Z" fill="#008CFF"/>
</svg>
