<svg width="62" height="34" viewBox="0 0 62 34" fill="none" xmlns="http://www.w3.org/2000/svg">
<path d="M55.2993 8.50643C54.1766 7.1168 52.5016 6.31992 50.7035 6.31992H44.2325V2.43623C44.2325 1.3653 43.3526 0.494385 42.2705 0.494385H8.91778C7.83578 0.494385 6.95586 1.3653 6.95586 2.43623V6.31992H2.05104C1.5093 6.31992 1.07008 6.75465 1.07008 7.29084C1.07008 7.82703 1.5093 8.26176 2.05104 8.26176H6.95586V19.9128H1.07008C0.528338 19.9128 0.0891113 20.3476 0.0891113 20.8837C0.0891113 21.4199 0.528338 21.8547 1.07008 21.8547H6.95586V27.6802C6.95586 28.7511 7.83578 29.622 8.91778 29.622H11.9599C12.4157 31.835 14.3971 33.5057 16.7655 33.5057C19.1339 33.5057 21.1153 31.835 21.5711 29.622H47.2744C47.7302 31.835 49.7116 33.5057 52.0801 33.5057C54.4485 33.5057 56.4299 31.835 56.8857 29.622H58.9468C60.5696 29.622 61.8897 28.3154 61.8897 26.7093V18.7029C61.8897 17.385 61.4318 16.0926 60.5997 15.0639L55.2993 8.50643ZM16.7654 31.5639C15.1426 31.5639 13.8225 30.2573 13.8225 28.6511C13.8225 27.045 15.1426 25.7384 16.7654 25.7384C18.3881 25.7384 19.7083 27.045 19.7083 28.6511C19.7083 30.2573 18.3883 31.5639 16.7654 31.5639ZM52.0801 31.5639C50.4573 31.5639 49.1372 30.2573 49.1372 28.6511C49.1372 27.045 50.4573 25.7384 52.0801 25.7384C53.7028 25.7384 55.023 27.045 55.023 28.6511C55.023 30.2573 53.7029 31.5639 52.0801 31.5639ZM59.9278 26.7093C59.9278 27.2445 59.4876 27.6802 58.9468 27.6802H56.8857C56.4299 25.4672 54.4485 23.7965 52.0801 23.7965C49.7116 23.7965 47.7302 25.4672 47.2744 27.6802H44.2324V15.0582C44.2324 14.522 43.7931 10.745 43.2514 10.745C42.7097 10.745 42.2704 14.522 42.2704 15.0582V27.6802H21.5711C21.1153 25.4672 19.1339 23.7965 16.7655 23.7965C14.3971 23.7965 12.4157 25.4672 11.9599 27.6802H8.91766V21.8547H11.8606C12.4023 21.8547 12.8415 21.4199 12.8415 20.8837C12.8415 20.3476 12.4023 19.9128 11.8606 19.9128H8.91766V8.26176H22.6512C23.1929 8.26176 23.6321 7.82703 23.6321 7.29084C23.6321 6.75465 23.1929 6.31992 22.6512 6.31992H8.91766V2.43623H42.2704V15.0582C42.2704 15.5944 42.7097 13.1164 43.2514 13.1164C43.7931 13.1164 44.2324 15.5944 44.2324 15.0582V8.26176H50.7034C51.9018 8.26176 53.0188 8.79322 53.7674 9.71911L59.068 16.2766C59.6222 16.9626 59.9278 17.8245 59.9278 18.7029V26.7093Z" fill="#353A4E"/>
</svg>
