<svg width="22" height="18" viewBox="0 0 22 18" fill="none" xmlns="http://www.w3.org/2000/svg">
<path d="M14.4617 1.00835L21.1915 7.7382C21.5257 8.07279 21.7134 8.52634 21.7134 8.99923C21.7134 9.47212 21.5257 9.92567 21.1915 10.2603L14.4629 16.9913C14.1281 17.3261 13.6741 17.5141 13.2006 17.5141C12.7272 17.5141 12.2732 17.3261 11.9384 16.9913C11.6037 16.6565 11.4156 16.2025 11.4156 15.7291C11.4156 15.2557 11.6037 14.8016 11.9384 14.4669L15.6216 10.7837H1.89898C1.4257 10.7837 0.971816 10.5957 0.637162 10.261C0.302509 9.92639 0.114502 9.4725 0.114502 8.99923C0.114502 8.52596 0.302509 8.07207 0.637162 7.73742C0.971816 7.40276 1.4257 7.21476 1.89898 7.21476H15.6216L11.9396 3.5316C11.605 3.19684 11.4171 2.74287 11.4172 2.26956C11.4173 1.79624 11.6054 1.34236 11.9402 1.00776C12.275 0.673155 12.7289 0.48524 13.2023 0.485352C13.6756 0.485463 14.1294 0.673593 14.4641 1.00835H14.4617Z" fill="white"/>
</svg>
