<svg width="50" height="50" viewBox="0 0 50 50" fill="none" xmlns="http://www.w3.org/2000/svg">
<g clip-path="url(#clip0_4440_2283)">
<path d="M11.8164 25C11.8164 15.1597 18.357 6.53311 27.6252 3.83809L29.3908 0.397852C27.9415 0.141602 26.4674 0 25 0C11.2686 0 0 11.2686 0 25C0 38.7314 11.2686 50 25 50C26.4689 50 27.9449 49.8584 29.396 49.6015L29.0827 46.4504C19.0464 44.2667 11.8164 35.3508 11.8164 25Z" fill="#78847D"/>
<path fill-rule="evenodd" clip-rule="evenodd" d="M30.6793 3.1543L37.3047 3.37871C45.0682 7.74395 50 15.9179 50 24.9998C50 26.4632 49.8485 27.9469 49.5908 29.3894L49.5892 29.3884L49.5898 29.3943L49.5604 29.6581C49.2089 31.533 48.5255 33.4079 47.7051 35.2243C47.7051 35.2243 47.7051 35.2244 47.7052 35.2244C47.6614 35.3263 47.6105 35.4354 47.5596 35.5446C47.5081 35.6552 47.4565 35.7659 47.4123 35.869V35.8981C47.3976 35.9422 47.3756 35.9789 47.3536 36.0156C47.3316 36.0522 47.3096 36.0888 47.295 36.1326C46.9141 36.8943 46.4748 37.6268 46.0352 38.3592C45.7717 38.7693 45.4786 39.1795 45.1563 39.5895H45.1563C44.9512 39.9119 44.7167 40.2342 44.4531 40.5564C44.0723 41.0251 43.6914 41.4646 43.2519 41.9042C41.5527 43.7791 39.5313 45.3612 37.334 46.621H30.2734C25.0587 43.6326 21.0157 38.7988 19.082 33.1151H19.0819H19.0234L18.7686 32.2329C18.724 32.0894 18.6825 31.9458 18.6442 31.8023L18.6426 31.7968C18.586 31.6044 18.5338 31.412 18.4842 31.2195L18.2325 30.3026H18.2617C17.8808 28.5449 17.6758 26.787 17.6758 24.9999V24.6776L17.6758 24.6776L17.6171 24.7069L17.7027 23.8234C17.7033 23.8163 17.704 23.8091 17.7047 23.802L17.7051 23.7987C17.7147 23.6642 17.7211 23.5327 17.7275 23.4024C17.7406 23.1355 17.7535 22.8731 17.7928 22.5975C17.8055 22.4457 17.8236 22.2995 17.8448 22.1564L17.9101 21.6015L17.9394 21.6015C18.3991 18.1074 19.5803 14.7938 21.4404 11.8162H21.2793L22.3587 10.4501C22.6046 10.1093 22.86 9.77354 23.1249 9.44316L23.5644 8.88652H23.6064C25.5496 6.57106 27.9653 4.644 30.6793 3.1543Z" fill="#1D1F40"/>
<path d="M34.3164 45.3907C28.0762 42.8419 23.2714 37.4512 21.4551 30.9766C21.338 30.5665 21.2208 30.1271 21.1328 29.7168C20.7812 28.1642 20.6055 26.582 20.6055 25C20.6055 24.2969 20.6348 23.6231 20.7226 22.9198C21.1034 18.8769 22.5683 15.0683 25 11.8164L25.4396 11.2598C27.7246 8.38877 30.8007 6.07412 34.3164 4.60928L37.3047 3.37891C36.4843 2.88096 35.6054 2.44141 34.6973 2.06055C34.6973 2.06055 34.0819 1.82627 33.9941 1.79697C32.5293 1.21104 31.1231 0.703125 29.6583 0.439551L29.3945 0.380859L29.1308 0.439551C17.3829 2.66592 8.88672 13.0468 8.88672 25C8.88672 36.9532 17.3829 47.3341 29.1308 49.5605L29.3945 49.6191L29.6583 49.5605C31.1231 49.2969 32.5293 48.7891 33.9941 48.203C34.0819 48.1737 34.1992 48.1152 34.287 48.0859L34.7852 47.8809C35.6641 47.5293 36.5136 47.0898 37.334 46.6211L34.3164 45.3907Z" fill="#2D3243"/>
</g>
<defs>
<clipPath id="clip0_4440_2283">
<rect width="50" height="50" fill="white"/>
</clipPath>
</defs>
</svg>
